PathFileType	4	(X/Y/Z)	OpenSim_Sub02_EMGStiffKnee_Magnet.trc
DataRate	CameraRate	NumFrames	NumMarkers	Units	OrigDataRate	OrigDataStartFrame	OrigNumFrames
100	100	16	8	m	100	1973	7890
Frame#	Time	torso_imu_offset_imu	pelvis_imu_offset_imu	tibia_r_imu_offset_imu	femur_r_imu_offset_imu	tibia_l_imu_offset_imu	femur_l_imu_offset_imu	toes_r_imu_offset_imu	toes_l_imu_offset_imu
				X1	Y1	Z1	X2	Y2	Z2	X3	Y3	Z3	X4	Y4	Z4	X5	Y5	Z5	X6	Y6	Z6	X7	Y7	Z7	X8		Y8	Z8	

1973	19.72000000	-0.94926350	-0.12017760	0.08133699	-0.58393916	0.18112750	-0.71579135	-0.58250023	-0.53012402	-0.22247444	-0.83036080	-0.18448022	0.08342525	-0.27731854	0.80767289	-0.10256521	-0.51781154	0.64399388	0.20383665	-0.63085475	-0.29926457	-0.36931018	-0.83927421	0.00548763	-0.00326670
1974	19.73000000	-0.94539502	-0.11823885	0.08408076	-0.57824880	0.17483750	-0.70662553	-0.57573823	-0.54235036	-0.22208607	-0.82641172	-0.19487682	0.08585546	-0.25858042	0.81299672	-0.10819936	-0.52143432	0.63501380	0.20568352	-0.63538256	-0.29371908	-0.36511222	-0.83594365	0.01973193	0.04699909
1975	19.74000000	-0.94269208	-0.11766454	0.08276982	-0.57908561	0.17050057	-0.70886805	-0.57312101	-0.55010325	-0.21509167	-0.82503501	-0.20743276	0.09646223	-0.23973028	0.81541230	-0.11376257	-0.53016316	0.63347679	0.20929892	-0.63659572	-0.29390851	-0.35737005	-0.83748690	0.03098541	0.09334185
1976	19.75000000	-0.94791611	-0.11656693	0.08110997	-0.57952056	0.16746283	-0.71687851	-0.57590340	-0.55823130	-0.20736684	-0.81914241	-0.22134652	0.09671774	-0.22545539	0.82003932	-0.12522633	-0.53515899	0.62259172	0.20931171	-0.64039221	-0.29523447	-0.35782948	-0.83043847	0.04466995	0.13091876
1977	19.76000000	-0.94728746	-0.11493838	0.08547636	-0.58099801	0.16006758	-0.71464224	-0.56842464	-0.56243208	-0.20192939	-0.81305418	-0.23755967	0.10426646	-0.20701596	0.81972671	-0.13543143	-0.54119097	0.61720263	0.21215566	-0.64084256	-0.29198564	-0.35222639	-0.82511660	0.06061304	0.16042892
1978	19.77000000	-0.94712076	-0.11107101	0.08257636	-0.58030612	0.15582894	-0.71422115	-0.56598164	-0.55952620	-0.20902235	-0.81356594	-0.24559231	0.10786369	-0.19084223	0.82000684	-0.15050008	-0.55357372	0.61331095	0.20986909	-0.63903558	-0.29088561	-0.34888750	-0.82449870	0.06957710	0.17914415
1979	19.78000000	-0.94786710	-0.10896549	0.07921746	-0.58135151	0.15315057	-0.71838575	-0.56871110	-0.55752825	-0.20714462	-0.80915462	-0.25200729	0.10720563	-0.17668726	0.82357359	-0.16054056	-0.56299075	0.60282249	0.21008815	-0.64422902	-0.28791979	-0.34497862	-0.81740797	0.07872229	0.18819374
1980	19.79000000	-0.94699321	-0.10866498	0.08055983	-0.58267046	0.14936214	-0.71886572	-0.56912045	-0.55981565	-0.21376958	-0.80773276	-0.26021334	0.11809217	-0.16509968	0.82321977	-0.16516244	-0.57025616	0.59704763	0.21177161	-0.63789535	-0.28811830	-0.34340001	-0.82011785	0.08606772	0.18671595
1981	19.80000000	-0.94876397	-0.10977529	0.07726593	-0.58280519	0.14757125	-0.72236716	-0.55609716	-0.56422153	-0.21954164	-0.80741100	-0.26660025	0.12294556	-0.15868065	0.81677740	-0.17836148	-0.57373168	0.58837106	0.21093286	-0.63328858	-0.28360521	-0.33612065	-0.82138538	0.08938712	0.18206831
1982	19.81000000	-0.94846067	-0.10666956	0.07872697	-0.58710113	0.14552781	-0.71968514	-0.54972495	-0.57274789	-0.22240757	-0.79939603	-0.27504044	0.12370104	-0.15050126	0.81440755	-0.19501328	-0.58228693	0.58081074	0.21501045	-0.64052070	-0.27977869	-0.33097504	-0.82167239	0.08509326	0.16449819
1983	19.82000000	-0.94891643	-0.10662195	0.08356031	-0.58691170	0.13696960	-0.72271290	-0.55520424	-0.57772822	-0.21971456	-0.79440536	-0.27984166	0.13370983	-0.15733777	0.81742772	-0.20877722	-0.58923966	0.58052108	0.22057413	-0.63470549	-0.28016817	-0.33253780	-0.82492441	0.07780303	0.15354021
1984	19.83000000	-0.94745323	-0.10799056	0.07929110	-0.58614330	0.13364552	-0.72140509	-0.55413483	-0.58132019	-0.21711606	-0.79417205	-0.28900915	0.14259531	-0.16190263	0.81058229	-0.21811937	-0.59180411	0.57043131	0.21972481	-0.63189584	-0.28056395	-0.33307223	-0.82912614	0.07108893	0.14386329
1985	19.84000000	-0.94738027	-0.10859457	0.07908801	-0.59169551	0.13591863	-0.71989797	-0.54948249	-0.58216937	-0.22081663	-0.79041742	-0.29630375	0.14001145	-0.17489194	0.80931495	-0.22342200	-0.59059450	0.56714579	0.22914212	-0.63718250	-0.27741213	-0.33226659	-0.83366181	0.05609648	0.11730935
1986	19.85000000	-0.94748896	-0.11082295	0.07776975	-0.58993270	0.12687306	-0.71258222	-0.54496996	-0.58344343	-0.21988326	-0.78298991	-0.30229746	0.14872068	-0.19392724	0.80106733	-0.23048660	-0.59795814	0.56118608	0.23258779	-0.63165348	-0.27451167	-0.33296378	-0.83445282	0.04678851	0.10300195
1987	19.86000000	-0.94781688	-0.11340829	0.07661163	-0.59172531	0.12394569	-0.72318811	-0.54210551	-0.58856584	-0.21593722	-0.78255495	-0.31412148	0.15059683	-0.20908262	0.79317212	-0.22877204	-0.60389578	0.55144872	0.23757561	-0.63370771	-0.27414951	-0.32863553	-0.83453839	0.03608146	0.07473722
1988	19.87000000	-0.94991789	-0.11282892	0.07781650	-0.59592663	0.11870774	-0.72428570	-0.53783888	-0.59054337	-0.21766982	-0.77509910	-0.32520598	0.15382785	-0.23080621	0.79079465	-0.22268489	-0.60068833	0.54985484	0.24784793	-0.63816364	-0.27416491	-0.33113689	-0.84180940	0.01964299	0.04874156
